<?xml version="1.0" encoding="UTF-8"?>
<svg id="Layer_2" data-name="Layer 2" xmlns="http://www.w3.org/2000/svg" viewBox="0 0 663.14 441.85">
  <defs>
    <style>
      .cls-1 {
        fill: #eeebe3;
      }
    </style>
  </defs>
  <g id="Layer_1-2" data-name="Layer 1">
    <path class="cls-1" d="M294.43,147.72h73.84V33.28C368.27,14.63,388.74-.03,406.26.05c16.1.07,35.86,15.98,35.86,32.7v114.43h147.16V30.1c0-3.71,6.37-14.45,9.05-17.51,21.25-24.36,62.31-10.64,64.79,21.76l.03,262.86c-1.06,70.19-52.94,130.8-122.11,142.38-87.68,14.68-168.13-49.18-172.78-137.61l.02-81h-73.31l.02,73.57c-1.49,140.58-177.56,201.04-265.1,89.17-13.06-16.68-29.44-44.09-21.14-65.7,8.31-21.63,33.19-30.13,53.36-18.54,14.63,8.41,14.4,19.3,22.06,32.11,37.2,62.25,132.28,38.97,136.45-32.8l.51-77.82c-47.55.19-95.11-.23-142.67-.02-16.91.07-44.86,3.54-59.75-4.48-24.31-13.1-24.75-49.35-1.22-63.9,3.27-2.02,12.16-5.4,15.84-5.4h187.8v-73.28H32.26c-6.39,0-17.64-6.21-22.06-10.87C-10.32,41.36,1.86,5.09,31.26.69,106.25-.7,181.41.51,256.47.07c23.35,1.28,38,15.37,38.52,39.03l-.56,108.62ZM589.27,220.99h-147.16c-.36,13.01-.61,25.98-.55,39.05.07,15.93-1.07,39.97,3.2,54.68,17.18,59.21,95.41,72.98,131.13,22.19,5.1-7.25,13.38-25.22,13.38-33.89v-82.04Z"/>
  </g>
</svg>